<svg width="233" height="77" viewBox="0 0 233 77" fill="none" xmlns="http://www.w3.org/2000/svg">
<path d="M31.0909 27.0909C30.8182 24.7879 29.7121 23 27.7727 21.7273C25.8333 20.4545 23.4545 19.8182 20.6364 19.8182C18.5758 19.8182 16.7727 20.1515 15.2273 20.8182C13.697 21.4848 12.5 22.4015 11.6364 23.5682C10.7879 24.7348 10.3636 26.0606 10.3636 27.5455C10.3636 28.7879 10.6591 29.8561 11.25 30.75C11.8561 31.6288 12.6288 32.3636 13.5682 32.9545C14.5076 33.5303 15.4924 34.0076 16.5227 34.3864C17.553 34.75 18.5 35.0455 19.3636 35.2727L24.0909 36.5455C25.303 36.8636 26.6515 37.303 28.1364 37.8636C29.6364 38.4242 31.0682 39.1894 32.4318 40.1591C33.8106 41.1136 34.947 42.3409 35.8409 43.8409C36.7349 45.3409 37.1818 47.1818 37.1818 49.3636C37.1818 51.8788 36.5227 54.1515 35.2045 56.1818C33.9015 58.2121 31.9924 59.8258 29.4773 61.0227C26.9773 62.2197 23.9394 62.8182 20.3636 62.8182C17.0303 62.8182 14.1439 62.2803 11.7045 61.2045C9.2803 60.1288 7.37121 58.6288 5.97727 56.7045C4.59848 54.7803 3.81818 52.5455 3.63636 50H9.45455C9.60606 51.7576 10.197 53.2121 11.2273 54.3636C12.2727 55.5 13.5909 56.3485 15.1818 56.9091C16.7879 57.4545 18.5152 57.7273 20.3636 57.7273C22.5152 57.7273 24.447 57.3788 26.1591 56.6818C27.8712 55.9697 29.2273 54.9848 30.2273 53.7273C31.2273 52.4545 31.7273 50.9697 31.7273 49.2727C31.7273 47.7273 31.2955 46.4697 30.4318 45.5C29.5682 44.5303 28.4318 43.7424 27.0227 43.1364C25.6136 42.5303 24.0909 42 22.4545 41.5455L16.7273 39.9091C13.0909 38.8636 10.2121 37.3712 8.09091 35.4318C5.9697 33.4924 4.90909 30.9545 4.90909 27.8182C4.90909 25.2121 5.61364 22.9394 7.02273 21C8.44697 19.0455 10.3561 17.5303 12.75 16.4545C15.1591 15.3636 17.8485 14.8182 20.8182 14.8182C23.8182 14.8182 26.4848 15.3561 28.8182 16.4318C31.1515 17.4924 33 18.947 34.3636 20.7955C35.7424 22.6439 36.4697 24.7424 36.5455 27.0909H31.0909ZM85.2489 34.9091L80.4307 36.2727C80.1277 35.4697 79.6807 34.6894 79.0898 33.9318C78.514 33.1591 77.7261 32.5227 76.7261 32.0227C75.7261 31.5227 74.4458 31.2727 72.8852 31.2727C70.7489 31.2727 68.9686 31.7652 67.5443 32.75C66.1352 33.7197 65.4307 34.9545 65.4307 36.4545C65.4307 37.7879 65.9155 38.8409 66.8852 39.6136C67.8549 40.3864 69.3701 41.0303 71.4307 41.5455L76.6125 42.8182C79.7337 43.5758 82.0595 44.7348 83.5898 46.2955C85.1201 47.8409 85.8852 49.8333 85.8852 52.2727C85.8852 54.2727 85.3095 56.0606 84.158 57.6364C83.0216 59.2121 81.4307 60.4545 79.3852 61.3636C77.3398 62.2727 74.961 62.7273 72.2489 62.7273C68.6883 62.7273 65.7413 61.9545 63.408 60.4091C61.0746 58.8636 59.5973 56.6061 58.9761 53.6364L64.067 52.3636C64.5519 54.2424 65.4686 55.6515 66.817 56.5909C68.1807 57.5303 69.961 58 72.158 58C74.658 58 76.6428 57.4697 78.1125 56.4091C79.5973 55.3333 80.3398 54.0455 80.3398 52.5455C80.3398 51.3333 79.9155 50.3182 79.067 49.5C78.2186 48.6667 76.9155 48.0455 75.158 47.6364L69.3398 46.2727C66.1428 45.5152 63.7943 44.3409 62.2943 42.75C60.8095 41.1439 60.067 39.1364 60.067 36.7273C60.067 34.7576 60.6201 33.0152 61.7261 31.5C62.8473 29.9848 64.3701 28.7955 66.2943 27.9318C68.2337 27.0682 70.4307 26.6364 72.8852 26.6364C76.3398 26.6364 79.0519 27.3939 81.0216 28.9091C83.0064 30.4242 84.4155 32.4242 85.2489 34.9091ZM90.7591 75.0909V27.0909H95.9409V32.6364H96.5773C96.9712 32.0303 97.5167 31.2576 98.2136 30.3182C98.9258 29.3636 99.9409 28.5152 101.259 27.7727C102.592 27.0152 104.395 26.6364 106.668 26.6364C109.608 26.6364 112.198 27.3712 114.441 28.8409C116.683 30.3106 118.433 32.3939 119.691 35.0909C120.948 37.7879 121.577 40.9697 121.577 44.6364C121.577 48.3333 120.948 51.5379 119.691 54.25C118.433 56.947 116.691 59.0379 114.464 60.5227C112.236 61.9924 109.668 62.7273 106.759 62.7273C104.517 62.7273 102.721 62.3561 101.373 61.6136C100.024 60.8561 98.9864 60 98.2591 59.0455C97.5318 58.0758 96.9712 57.2727 96.5773 56.6364H96.1227V75.0909H90.7591ZM96.0318 44.5455C96.0318 47.1818 96.4182 49.5076 97.1909 51.5227C97.9636 53.5227 99.0924 55.0909 100.577 56.2273C102.062 57.3485 103.88 57.9091 106.032 57.9091C108.274 57.9091 110.145 57.3182 111.645 56.1364C113.161 54.9394 114.297 53.3333 115.055 51.3182C115.827 49.2879 116.214 47.0303 116.214 44.5455C116.214 42.0909 115.835 39.8788 115.077 37.9091C114.335 35.9242 113.206 34.3561 111.691 33.2045C110.191 32.0379 108.305 31.4545 106.032 31.4545C103.85 31.4545 102.017 32.0076 100.532 33.1136C99.047 34.2045 97.9258 35.7348 97.1682 37.7045C96.4106 39.6591 96.0318 41.9394 96.0318 44.5455ZM140.741 62.7273C137.589 62.7273 134.824 61.9773 132.445 60.4773C130.082 58.9773 128.233 56.8788 126.9 54.1818C125.582 51.4848 124.923 48.3333 124.923 44.7273C124.923 41.0909 125.582 37.9167 126.9 35.2045C128.233 32.4924 130.082 30.3864 132.445 28.8864C134.824 27.3864 137.589 26.6364 140.741 26.6364C143.892 26.6364 146.65 27.3864 149.014 28.8864C151.392 30.3864 153.241 32.4924 154.559 35.2045C155.892 37.9167 156.559 41.0909 156.559 44.7273C156.559 48.3333 155.892 51.4848 154.559 54.1818C153.241 56.8788 151.392 58.9773 149.014 60.4773C146.65 61.9773 143.892 62.7273 140.741 62.7273ZM140.741 57.9091C143.135 57.9091 145.105 57.2955 146.65 56.0682C148.195 54.8409 149.339 53.2273 150.082 51.2273C150.824 49.2273 151.195 47.0606 151.195 44.7273C151.195 42.3939 150.824 40.2197 150.082 38.2045C149.339 36.1894 148.195 34.5606 146.65 33.3182C145.105 32.0758 143.135 31.4545 140.741 31.4545C138.347 31.4545 136.377 32.0758 134.832 33.3182C133.286 34.5606 132.142 36.1894 131.4 38.2045C130.658 40.2197 130.286 42.3939 130.286 44.7273C130.286 47.0606 130.658 49.2273 131.4 51.2273C132.142 53.2273 133.286 54.8409 134.832 56.0682C136.377 57.2955 138.347 57.9091 140.741 57.9091ZM161.547 62V27.0909H166.728V32.3636H167.092C167.728 30.6364 168.88 29.2348 170.547 28.1591C172.213 27.0833 174.092 26.5455 176.183 26.5455C176.577 26.5455 177.069 26.553 177.66 26.5682C178.251 26.5833 178.698 26.6061 179.001 26.6364V32.0909C178.819 32.0455 178.403 31.9773 177.751 31.8864C177.115 31.7803 176.441 31.7273 175.728 31.7273C174.031 31.7273 172.516 32.0833 171.183 32.7955C169.865 33.4924 168.819 34.4621 168.047 35.7045C167.289 36.9318 166.91 38.3333 166.91 39.9091V62H161.547ZM199.528 27.0909V31.6364H181.438V27.0909H199.528ZM186.71 18.7273H192.074V52C192.074 53.5152 192.294 54.6515 192.733 55.4091C193.188 56.1515 193.763 56.6515 194.46 56.9091C195.172 57.1515 195.922 57.2727 196.71 57.2727C197.301 57.2727 197.786 57.2424 198.165 57.1818C198.544 57.1061 198.847 57.0455 199.074 57L200.165 61.8182C199.801 61.9545 199.294 62.0909 198.642 62.2273C197.991 62.3788 197.165 62.4545 196.165 62.4545C194.65 62.4545 193.165 62.1288 191.71 61.4773C190.271 60.8258 189.074 59.8333 188.119 58.5C187.18 57.1667 186.71 55.4848 186.71 53.4545V18.7273ZM228.499 34.9091L223.681 36.2727C223.378 35.4697 222.931 34.6894 222.34 33.9318C221.764 33.1591 220.976 32.5227 219.976 32.0227C218.976 31.5227 217.696 31.2727 216.135 31.2727C213.999 31.2727 212.219 31.7652 210.794 32.75C209.385 33.7197 208.681 34.9545 208.681 36.4545C208.681 37.7879 209.166 38.8409 210.135 39.6136C211.105 40.3864 212.62 41.0303 214.681 41.5455L219.863 42.8182C222.984 43.5758 225.309 44.7348 226.84 46.2955C228.37 47.8409 229.135 49.8333 229.135 52.2727C229.135 54.2727 228.559 56.0606 227.408 57.6364C226.272 59.2121 224.681 60.4545 222.635 61.3636C220.59 62.2727 218.211 62.7273 215.499 62.7273C211.938 62.7273 208.991 61.9545 206.658 60.4091C204.325 58.8636 202.847 56.6061 202.226 53.6364L207.317 52.3636C207.802 54.2424 208.719 55.6515 210.067 56.5909C211.431 57.5303 213.211 58 215.408 58C217.908 58 219.893 57.4697 221.363 56.4091C222.847 55.3333 223.59 54.0455 223.59 52.5455C223.59 51.3333 223.166 50.3182 222.317 49.5C221.469 48.6667 220.166 48.0455 218.408 47.6364L212.59 46.2727C209.393 45.5152 207.044 44.3409 205.544 42.75C204.059 41.1439 203.317 39.1364 203.317 36.7273C203.317 34.7576 203.87 33.0152 204.976 31.5C206.097 29.9848 207.62 28.7955 209.544 27.9318C211.484 27.0682 213.681 26.6364 216.135 26.6364C219.59 26.6364 222.302 27.3939 224.272 28.9091C226.256 30.4242 227.666 32.4242 228.499 34.9091Z" fill="#32FCB3"/>
<path d="M44 12C44 14.2091 42.2091 16 40 16C37.7909 16 36 14.2091 36 12C36 9.79086 37.7909 8 40 8C42.2091 8 44 9.79086 44 12Z" fill="#32FCB3"/>
</svg>
