<svg width="127" height="35" viewBox="0 0 127 35" fill="none" xmlns="http://www.w3.org/2000/svg">
<path d="M14.9012 10.832C15.2007 10.6107 15.4677 10.3438 15.702 10.0312C15.9494 9.71875 16.1578 9.38021 16.327 9.01562C16.4963 8.65104 16.6265 8.26693 16.7177 7.86328C16.8088 7.45964 16.8544 7.04948 16.8544 6.63281C16.8544 6.00781 16.7437 5.38932 16.5223 4.77734C16.314 4.15234 15.969 3.59245 15.4872 3.09766C15.0184 2.58984 14.4065 2.17969 13.6512 1.86719C12.896 1.55469 11.9781 1.39844 10.8973 1.39844C9.69943 1.39844 8.56661 1.59375 7.49891 1.98438C6.4312 2.375 5.4937 2.90234 4.68641 3.56641C3.89213 4.23047 3.26062 4.9987 2.79187 5.87109C2.32312 6.74349 2.08875 7.65495 2.08875 8.60547C2.08875 9.60807 2.32312 10.5 2.79187 11.2812C3.27364 12.0495 3.89864 12.7526 4.66687 13.3906C5.44812 14.0156 6.33354 14.5951 7.32312 15.1289C8.31271 15.6628 9.32182 16.1901 10.3505 16.7109C11.3791 17.2318 12.3882 17.7786 13.3778 18.3516C14.3674 18.9115 15.2463 19.543 16.0145 20.2461C16.7958 20.9492 17.4208 21.737 17.8895 22.6094C18.3713 23.4818 18.6122 24.4909 18.6122 25.6367C18.6122 26.7305 18.3518 27.7786 17.8309 28.7812C17.3101 29.7839 16.594 30.6758 15.6825 31.457C14.771 32.2253 13.6968 32.8372 12.4598 33.293C11.2359 33.7617 9.91427 33.9961 8.495 33.9961C6.90646 33.9961 5.59135 33.8203 4.54969 33.4688C3.52104 33.1302 2.70073 32.7005 2.08875 32.1797C1.48979 31.6589 1.07312 31.099 0.838749 30.5C0.604374 29.888 0.487186 29.3216 0.487186 28.8008C0.487186 28.1628 0.584843 27.5898 0.780155 27.082C0.988489 26.5612 1.26193 26.099 1.60047 25.6953C1.93901 25.2786 2.31661 24.9206 2.73328 24.6211C3.16297 24.3086 3.59917 24.0482 4.04187 23.8398C4.4976 23.6185 4.9338 23.4427 5.35047 23.3125C5.78016 23.1693 6.16427 23.0651 6.50281 23L6.69812 23.9961C6.54187 24.0482 6.25542 24.1784 5.83875 24.3867C5.4351 24.582 5.01193 24.875 4.56922 25.2656C4.12651 25.6432 3.73588 26.1185 3.39734 26.6914C3.0588 27.2643 2.88953 27.9414 2.88953 28.7227C2.88953 29.2565 3.00021 29.7773 3.22156 30.2852C3.45594 30.793 3.80099 31.2487 4.25672 31.6523C4.71245 32.056 5.27234 32.3815 5.93641 32.6289C6.60047 32.8763 7.37521 33 8.26062 33C9.32833 33 10.2593 32.9023 11.0536 32.707C11.8609 32.4987 12.551 32.2318 13.1239 31.9062C13.7098 31.5807 14.1851 31.2096 14.5497 30.793C14.9273 30.3633 15.2203 29.9206 15.4286 29.4648C15.6499 29.0091 15.7997 28.5599 15.8778 28.1172C15.969 27.6615 16.0145 27.2513 16.0145 26.8867C16.0145 25.8971 15.7867 25.0312 15.3309 24.2891C14.8752 23.5339 14.2697 22.8633 13.5145 22.2773C12.7723 21.6784 11.926 21.138 10.9755 20.6562C10.0249 20.1615 9.04838 19.6732 8.04578 19.1914C7.0562 18.7096 6.08614 18.2083 5.13562 17.6875C4.1851 17.1667 3.33224 16.5742 2.57703 15.9102C1.83484 15.2461 1.23588 14.4909 0.780155 13.6445C0.324426 12.7852 0.0965614 11.7826 0.0965614 10.6367C0.0965614 9.10026 0.415572 7.69401 1.05359 6.41797C1.69161 5.12891 2.55099 4.02865 3.63172 3.11719C4.71245 2.19271 5.96245 1.47656 7.38172 0.96875C8.81401 0.460938 10.3179 0.207031 11.8934 0.207031C13.2346 0.207031 14.3804 0.363281 15.3309 0.675781C16.2815 0.988281 17.0562 1.39844 17.6552 1.90625C18.2671 2.41406 18.7098 2.99349 18.9833 3.64453C19.2697 4.29557 19.413 4.95964 19.413 5.63672C19.413 6.44401 19.2697 7.17969 18.9833 7.84375C18.7098 8.50781 18.3713 9.10026 17.9677 9.62109C17.577 10.1289 17.1539 10.5586 16.6981 10.9102C16.2424 11.2487 15.8387 11.4896 15.4872 11.6328L14.9012 10.832ZM27.8244 21.8477C27.9806 21.6003 28.1108 21.2943 28.215 20.9297C28.3322 20.5651 28.3908 20.2005 28.3908 19.8359C28.3908 19.3932 28.2801 19.0091 28.0587 18.6836C27.8374 18.3581 27.4403 18.1953 26.8673 18.1953C26.4897 18.1953 26.1056 18.332 25.715 18.6055C25.3244 18.8789 24.9598 19.2891 24.6212 19.8359C24.2957 20.3828 24.0288 21.0729 23.8205 21.9062C23.6121 22.7396 23.508 23.7161 23.508 24.8359C23.508 25.7214 23.5991 26.5286 23.7814 27.2578C23.9637 27.987 24.2306 28.612 24.5822 29.1328C24.9337 29.6536 25.3569 30.0638 25.8517 30.3633C26.3595 30.6497 26.9259 30.793 27.5509 30.793C28.0067 30.793 28.4689 30.6758 28.9377 30.4414C29.4194 30.207 29.9012 29.8424 30.383 29.3477C30.8778 28.8529 31.3856 28.2148 31.9064 27.4336C32.4272 26.6393 32.9611 25.6953 33.508 24.6016L33.7033 24.1914L34.5041 24.7969L34.3087 25.207C33.6056 26.6003 32.9025 27.7917 32.1994 28.7812C31.5093 29.7708 30.8257 30.5781 30.1486 31.2031C29.4715 31.8281 28.8074 32.2839 28.1564 32.5703C27.5184 32.8568 26.8999 33 26.3009 33C25.4546 33 24.6994 32.8242 24.0353 32.4727C23.3712 32.1211 22.8114 31.6458 22.3556 31.0469C21.8999 30.4349 21.5483 29.7318 21.3009 28.9375C21.0666 28.1302 20.9494 27.2839 20.9494 26.3984C20.9494 24.9922 21.1382 23.7161 21.5158 22.5703C21.9064 21.4115 22.4077 20.4219 23.0197 19.6016C23.6317 18.7812 24.3218 18.1432 25.09 17.6875C25.8582 17.2318 26.633 17.0039 27.4142 17.0039C28.0132 17.0039 28.5145 17.0885 28.9181 17.2578C29.3218 17.4271 29.6473 17.6419 29.8947 17.9023C30.1421 18.1628 30.3179 18.4427 30.422 18.7422C30.5262 19.0417 30.5783 19.3281 30.5783 19.6016C30.5783 19.875 30.5197 20.1615 30.4025 20.4609C30.2853 20.7474 30.1095 21.0208 29.8752 21.2812C29.6538 21.5286 29.3869 21.7565 29.0744 21.9648C28.7619 22.1602 28.4103 22.3034 28.0197 22.3945L27.8244 21.8477ZM36.0405 26.2031C36.0405 26.8411 36.0209 27.5182 35.9819 28.2344C35.9428 28.9375 35.8582 29.6471 35.728 30.3633C35.6108 31.0664 35.435 31.7565 35.2006 32.4336C34.9662 33.0977 34.6472 33.7161 34.2436 34.2891L32.7592 33.8398C33.0847 32.7461 33.28 31.6003 33.3452 30.4023C33.4103 29.2044 33.4428 28.0065 33.4428 26.8086C33.4428 25.5065 33.4037 24.2044 33.3256 22.9023C33.2345 21.6003 33.1368 20.2982 33.0327 18.9961C32.9155 17.681 32.8178 16.3594 32.7397 15.0312C32.6485 13.7031 32.603 12.362 32.603 11.0078C32.603 10.1875 32.6941 9.47135 32.8764 8.85938C33.0457 8.2474 33.2735 7.73958 33.56 7.33594C33.8465 6.93229 34.1655 6.63281 34.517 6.4375C34.8686 6.22917 35.2202 6.125 35.5717 6.125C36.0665 6.125 36.4571 6.30078 36.7436 6.65234C37.0431 7.00391 37.2644 7.47917 37.4077 8.07812C37.5509 8.67708 37.6225 9.3737 37.6225 10.168C37.6355 10.9622 37.603 11.8021 37.5248 12.6875C37.4467 13.5729 37.336 14.4779 37.1928 15.4023C37.0496 16.3268 36.8933 17.2253 36.7241 18.0977C36.5548 18.9701 36.3855 19.7839 36.2162 20.5391C36.06 21.2943 35.9233 21.9388 35.8061 22.4727C35.8061 22.5768 35.8126 22.6875 35.8256 22.8047C35.8386 22.9089 35.8452 23.013 35.8452 23.1172C36.1186 22.5052 36.4506 21.8477 36.8412 21.1445C37.2449 20.4284 37.6941 19.7643 38.1889 19.1523C38.6967 18.5404 39.2436 18.0326 39.8295 17.6289C40.4285 17.2122 41.06 17.0039 41.7241 17.0039C42.7006 17.0039 43.4363 17.3294 43.9311 17.9805C44.4259 18.6315 44.6733 19.569 44.6733 20.793C44.6733 21.6393 44.6277 22.4531 44.5366 23.2344C44.4454 24.0156 44.3412 24.7708 44.2241 25.5C44.1199 26.2161 44.0222 26.9128 43.9311 27.5898C43.8399 28.2669 43.7944 28.9375 43.7944 29.6016C43.7944 30.3958 43.9962 30.793 44.3998 30.793C44.5952 30.793 44.8425 30.6237 45.142 30.2852C45.4545 29.9336 45.7996 29.4714 46.1772 28.8984C46.5548 28.3255 46.9519 27.668 47.3686 26.9258C47.7853 26.1836 48.1954 25.4089 48.5991 24.6016L48.7944 24.1914L49.5952 24.7969L49.3998 25.207C48.9441 26.1055 48.4689 27.0169 47.9741 27.9414C47.4793 28.8659 46.9715 29.7057 46.4506 30.4609C45.9298 31.2031 45.3959 31.8151 44.8491 32.2969C44.3152 32.7656 43.7814 33 43.2475 33C43.0131 33 42.7722 32.9609 42.5248 32.8828C42.2905 32.8047 42.0756 32.668 41.8803 32.4727C41.685 32.2773 41.5222 32.0169 41.392 31.6914C41.2618 31.3529 41.1967 30.9232 41.1967 30.4023C41.1967 29.8815 41.2228 29.3151 41.2748 28.7031C41.3269 28.0911 41.3855 27.4661 41.4506 26.8281C41.5287 26.1771 41.6134 25.5326 41.7045 24.8945C41.7957 24.2565 41.8738 23.6576 41.9389 23.0977C42.017 22.5378 42.0821 22.0365 42.1342 21.5938C42.1863 21.138 42.2123 20.7669 42.2123 20.4805C42.2123 19.7383 42.1082 19.1979 41.8998 18.8594C41.6915 18.5208 41.379 18.3516 40.9623 18.3516C40.4415 18.3516 39.9402 18.5794 39.4584 19.0352C38.9767 19.4909 38.5209 20.0638 38.0912 20.7539C37.6746 21.431 37.2905 22.1667 36.9389 22.9609C36.5873 23.7422 36.2748 24.4648 36.0014 25.1289C36.0014 25.3242 36.0079 25.5195 36.0209 25.7148C36.034 25.8971 36.0405 26.0599 36.0405 26.2031ZM34.7709 9.48438C34.7709 10.0182 34.7905 10.6693 34.8295 11.4375C34.8816 12.1927 34.9402 13.013 35.0053 13.8984C35.0834 14.7839 35.1616 15.7083 35.2397 16.6719C35.3308 17.6354 35.422 18.5859 35.5131 19.5234C35.6564 18.7943 35.7996 17.9935 35.9428 17.1211C36.086 16.2357 36.2097 15.3503 36.3139 14.4648C36.4311 13.5664 36.5157 12.694 36.5678 11.8477C36.6329 11.0013 36.6459 10.2526 36.6069 9.60156C36.5808 8.95052 36.4962 8.42969 36.353 8.03906C36.2097 7.63542 36.0014 7.43359 35.728 7.43359C35.4806 7.43359 35.2592 7.58333 35.0639 7.88281C34.8686 8.18229 34.7709 8.71615 34.7709 9.48438ZM54.2761 30.793C54.7318 30.793 55.1941 30.6758 55.6628 30.4414C56.1446 30.207 56.6264 29.8424 57.1081 29.3477C57.6029 28.8529 58.1107 28.2148 58.6316 27.4336C59.1524 26.6393 59.6862 25.6953 60.2331 24.6016L60.4284 24.1914L61.2292 24.7969L61.0339 25.207C60.3308 26.6003 59.6277 27.7917 58.9245 28.7812C58.2344 29.7708 57.5508 30.5781 56.8737 31.2031C56.2097 31.8281 55.5521 32.2839 54.9011 32.5703C54.2501 32.8568 53.6251 33 53.0261 33C52.1797 33 51.4245 32.8242 50.7605 32.4727C50.0964 32.1211 49.5365 31.6458 49.0808 31.0469C48.6251 30.4349 48.28 29.7318 48.0456 28.9375C47.7982 28.1302 47.6745 27.2839 47.6745 26.3984C47.6745 24.9922 47.8698 23.7161 48.2605 22.5703C48.6381 21.4115 49.1459 20.4219 49.7839 19.6016C50.4349 18.7812 51.1706 18.1432 51.9909 17.6875C52.8112 17.2318 53.6641 17.0039 54.5495 17.0039C55.448 17.0039 56.1316 17.2318 56.6003 17.6875C57.0821 18.1432 57.323 18.7161 57.323 19.4062C57.323 20.0703 57.1342 20.6953 56.7566 21.2812C56.379 21.8542 55.8646 22.4206 55.2136 22.9805C54.5756 23.5273 53.8334 24.0742 52.987 24.6211C52.1407 25.1549 51.2487 25.7083 50.3112 26.2812C50.4024 26.9583 50.5586 27.5768 50.78 28.1367C51.0014 28.6836 51.2813 29.1589 51.6198 29.5625C51.9584 29.9531 52.349 30.2591 52.7917 30.4805C53.2344 30.6888 53.7292 30.793 54.2761 30.793ZM54.8816 19.9922C54.8816 19.4714 54.7383 19.0612 54.4519 18.7617C54.1784 18.4622 53.8399 18.3125 53.4362 18.3125C53.0977 18.3125 52.7396 18.4362 52.362 18.6836C51.9844 18.918 51.6394 19.3021 51.3269 19.8359C51.0144 20.3568 50.754 21.0273 50.5456 21.8477C50.3373 22.668 50.2331 23.6641 50.2331 24.8359V25.2852C50.6758 25.0508 51.1641 24.7448 51.698 24.3672C52.2448 23.9766 52.7527 23.5469 53.2214 23.0781C53.6902 22.6094 54.0808 22.1146 54.3933 21.5938C54.7188 21.0599 54.8816 20.526 54.8816 19.9922ZM64.1133 33C63.319 33 62.6289 32.8307 62.043 32.4922C61.4701 32.1536 60.9948 31.6979 60.6172 31.125C60.2396 30.5391 59.9596 29.8685 59.7773 29.1133C59.5951 28.3581 59.5039 27.5573 59.5039 26.7109C59.5039 25.9688 59.5755 25.2135 59.7188 24.4453C59.862 23.6771 60.0638 22.9349 60.3242 22.2188C60.5977 21.4896 60.9362 20.8125 61.3398 20.1875C61.7435 19.5495 62.2057 18.9961 62.7266 18.5273C63.2474 18.0586 63.8268 17.6875 64.4648 17.4141C65.1159 17.1406 65.8125 17.0039 66.5547 17.0039C67.401 17.0039 68.1172 17.1927 68.7031 17.5703C69.3021 17.9479 69.7839 18.4102 70.1484 18.957C70.1615 16.4961 70.2852 14.3216 70.5195 12.4336C70.7539 10.5456 71.0794 8.96354 71.4961 7.6875C71.9258 6.41146 72.4336 5.44792 73.0195 4.79688C73.6055 4.13281 74.25 3.80078 74.9531 3.80078C75.2005 3.80078 75.4219 3.83333 75.6172 3.89844C75.8255 3.95052 75.9948 4.05469 76.125 4.21094C76.2682 4.36719 76.3724 4.58203 76.4375 4.85547C76.5156 5.11589 76.5547 5.45443 76.5547 5.87109C76.5547 6.73047 76.4701 7.72005 76.3008 8.83984C76.1315 9.94661 75.8906 11.1576 75.5781 12.4727C75.2656 13.7747 74.8815 15.168 74.4258 16.6523C73.9831 18.1237 73.4883 19.6536 72.9414 21.2422C72.9544 22.6354 72.974 23.8398 73 24.8555C73.026 25.8711 73.0586 26.7305 73.0977 27.4336C73.1497 28.1367 73.2083 28.7096 73.2734 29.1523C73.3516 29.5951 73.4362 29.9401 73.5273 30.1875C73.6315 30.4219 73.7487 30.5846 73.8789 30.6758C74.0221 30.7539 74.1784 30.793 74.3477 30.793C74.6471 30.793 74.9466 30.6628 75.2461 30.4023C75.5586 30.1289 75.8906 29.7318 76.2422 29.2109C76.5938 28.6771 76.9714 28.026 77.375 27.2578C77.7917 26.4896 78.2474 25.6042 78.7422 24.6016L78.957 24.1914L79.7578 24.7969L79.543 25.207C78.7878 26.7305 78.1237 27.9935 77.5508 28.9961C76.9779 29.9857 76.4505 30.7799 75.9688 31.3789C75.5 31.9779 75.0508 32.401 74.6211 32.6484C74.1914 32.8828 73.7422 33 73.2734 33C72.8177 33 72.4206 32.8893 72.082 32.668C71.7565 32.4336 71.4766 32.0755 71.2422 31.5938C71.0078 31.099 70.819 30.474 70.6758 29.7188C70.5326 28.9505 70.4219 28.0326 70.3438 26.9648C69.888 27.8763 69.4193 28.7031 68.9375 29.4453C68.4557 30.1875 67.9544 30.8255 67.4336 31.3594C66.9258 31.8802 66.3919 32.2839 65.832 32.5703C65.2721 32.8568 64.6992 33 64.1133 33ZM66.9453 18C66.2292 18 65.6042 18.2214 65.0703 18.6641C64.5365 19.0938 64.0938 19.6602 63.7422 20.3633C63.3906 21.0534 63.1302 21.8346 62.9609 22.707C62.7917 23.5794 62.707 24.4518 62.707 25.3242C62.707 26.0404 62.7591 26.7305 62.8633 27.3945C62.9805 28.0456 63.1497 28.625 63.3711 29.1328C63.6055 29.6406 63.8854 30.0443 64.2109 30.3438C64.5365 30.6432 64.9141 30.793 65.3438 30.793C65.7604 30.793 66.1641 30.6888 66.5547 30.4805C66.9583 30.2721 67.3555 29.9401 67.7461 29.4844C68.1367 29.0156 68.5339 28.4167 68.9375 27.6875C69.3411 26.9453 69.7708 26.0469 70.2266 24.9922C70.2005 24.3672 70.181 23.7031 70.168 23C70.1549 22.2839 70.1484 21.5221 70.1484 20.7148C69.862 19.8685 69.4258 19.2044 68.8398 18.7227C68.2669 18.2409 67.6354 18 66.9453 18ZM75.1484 6.59375C75.1484 5.99479 75.0768 5.57812 74.9336 5.34375C74.8034 5.10938 74.6471 4.99219 74.4648 4.99219C74.1523 4.99219 73.8984 5.29818 73.7031 5.91016C73.5078 6.50911 73.3516 7.32292 73.2344 8.35156C73.1302 9.38021 73.0521 10.5716 73 11.9258C72.9609 13.2799 72.9414 14.7057 72.9414 16.2031V18.3516C73.3451 17.0365 73.6901 15.8516 73.9766 14.7969C74.263 13.7422 74.4909 12.7591 74.6602 11.8477C74.8294 10.9362 74.9531 10.0573 75.0312 9.21094C75.1094 8.36458 75.1484 7.49219 75.1484 6.59375ZM86.7044 28.7617C86.6393 28.8659 86.5416 29.0482 86.4114 29.3086C86.2942 29.556 86.138 29.8359 85.9427 30.1484C85.7604 30.4609 85.539 30.7865 85.2786 31.125C85.0312 31.4635 84.7447 31.7695 84.4192 32.043C84.0937 32.3164 83.7291 32.5443 83.3255 32.7266C82.9348 32.9089 82.4986 33 82.0169 33C81.6393 33 81.2486 32.9219 80.845 32.7656C80.4414 32.6094 80.0638 32.3229 79.7122 31.9062C79.3736 31.4896 79.0937 30.9232 78.8723 30.207C78.651 29.4779 78.5403 28.5404 78.5403 27.3945C78.5403 26.3008 78.5794 25.207 78.6575 24.1133C78.7356 23.0065 78.8268 21.9974 78.9309 21.0859C79.0481 20.1745 79.1588 19.4128 79.263 18.8008C79.3671 18.1888 79.4453 17.8177 79.4973 17.6875C79.5494 17.5703 79.6536 17.4661 79.8098 17.375C79.9661 17.2839 80.1419 17.2122 80.3372 17.1602C80.5455 17.1081 80.7539 17.069 80.9622 17.043C81.1835 17.0169 81.3723 17.0039 81.5286 17.0039C81.7369 17.0039 81.8997 17.056 82.0169 17.1602C82.1471 17.2643 82.2122 17.4401 82.2122 17.6875C82.2122 17.8047 82.1861 18.0391 82.1341 18.3906C82.095 18.7292 82.0429 19.1458 81.9778 19.6406C81.9127 20.1354 81.8411 20.6823 81.763 21.2812C81.6979 21.8802 81.6328 22.4922 81.5677 23.1172C81.5026 23.7292 81.444 24.3411 81.3919 24.9531C81.3528 25.5521 81.3333 26.099 81.3333 26.5938C81.3333 28.013 81.483 29.0677 81.7825 29.7578C82.095 30.4479 82.6028 30.793 83.3059 30.793C83.9049 30.793 84.5104 30.3568 85.1223 29.4844C85.7473 28.612 86.2877 27.3424 86.7434 25.6758C86.8085 24.9727 86.8671 24.224 86.9192 23.4297C86.9843 22.6224 87.0429 21.8607 87.095 21.1445C87.1471 20.4154 87.1927 19.7643 87.2317 19.1914C87.2838 18.6185 87.3294 18.2083 87.3684 17.9609C87.4075 17.7786 87.5117 17.6289 87.6809 17.5117C87.8502 17.3815 88.039 17.2839 88.2473 17.2188C88.4687 17.1406 88.677 17.0885 88.8723 17.0625C89.0807 17.0234 89.2369 17.0039 89.3411 17.0039C89.5624 17.0039 89.7122 17.056 89.7903 17.1602C89.8815 17.2513 89.927 17.401 89.927 17.6094C89.927 17.7917 89.9075 18.1432 89.8684 18.6641C89.8424 19.1719 89.8033 19.7708 89.7513 20.4609C89.7122 21.138 89.6666 21.8672 89.6145 22.6484C89.5624 23.4297 89.5104 24.1849 89.4583 24.9141C89.4192 25.6302 89.3802 26.2812 89.3411 26.8672C89.3151 27.4531 89.302 27.8958 89.302 28.1953C89.302 29.0807 89.3476 29.7773 89.4388 30.2852C89.5429 30.793 89.7643 31.0469 90.1028 31.0469C90.3502 31.0469 90.6171 30.8906 90.9036 30.5781C91.2031 30.2526 91.5221 29.8034 91.8606 29.2305C92.2122 28.6576 92.5898 27.9805 92.9934 27.1992C93.3971 26.4049 93.8333 25.5391 94.302 24.6016L94.4973 24.1914L95.2981 24.7969L95.1028 25.207C94.4778 26.444 93.9244 27.5508 93.4427 28.5273C92.9739 29.4909 92.5247 30.3047 92.095 30.9688C91.6653 31.6328 91.2291 32.1406 90.7864 32.4922C90.3437 32.8307 89.8489 33 89.302 33C88.7942 33 88.371 32.9023 88.0325 32.707C87.707 32.5117 87.4466 32.2318 87.2513 31.8672C87.0559 31.5026 86.9127 31.0599 86.8216 30.5391C86.7434 30.0182 86.7044 29.4258 86.7044 28.7617ZM98.4361 30.5195C98.6705 30.5195 98.9374 30.3698 99.2369 30.0703C99.5494 29.7578 99.8814 29.3346 100.233 28.8008C100.585 28.2669 100.956 27.6419 101.346 26.9258C101.737 26.2096 102.141 25.4349 102.557 24.6016L102.753 24.1914L103.553 24.7969L103.358 25.207C102.668 26.5872 102.049 27.7721 101.503 28.7617C100.969 29.7383 100.467 30.5456 99.9986 31.1836C99.5298 31.8086 99.0806 32.2708 98.6509 32.5703C98.2343 32.8568 97.8046 33 97.3619 33C96.7759 33 96.2681 32.8112 95.8384 32.4336C95.4218 32.043 95.0702 31.3984 94.7838 30.5C94.5103 29.5885 94.3085 28.3906 94.1783 26.9062C94.0351 25.4219 93.9634 23.5859 93.9634 21.3984C93.9634 18.2995 94.0936 15.6432 94.3541 13.4297C94.6145 11.2031 94.966 9.38021 95.4088 7.96094C95.8645 6.52865 96.3853 5.48047 96.9713 4.81641C97.5702 4.13932 98.1952 3.80078 98.8463 3.80078C99.2369 3.80078 99.5624 3.96354 99.8228 4.28906C100.096 4.60156 100.233 5.17448 100.233 6.00781C100.233 6.65885 100.181 7.40104 100.077 8.23438C99.9726 9.06771 99.8358 9.95964 99.6666 10.9102C99.4973 11.8607 99.2955 12.8503 99.0611 13.8789C98.8267 14.8945 98.5793 15.9102 98.3189 16.9258C98.0585 17.9284 97.7916 18.918 97.5181 19.8945C97.2447 20.8581 96.9778 21.763 96.7173 22.6094C96.7955 24.2109 96.8801 25.526 96.9713 26.5547C97.0754 27.5703 97.1926 28.3711 97.3228 28.957C97.466 29.543 97.6288 29.9531 97.8111 30.1875C97.9934 30.4089 98.2017 30.5195 98.4361 30.5195ZM98.9634 6.47656C98.9634 6.20312 98.9309 5.98828 98.8658 5.83203C98.8007 5.67578 98.6965 5.59766 98.5533 5.59766C98.4101 5.59766 98.2668 5.79948 98.1236 6.20312C97.9804 6.60677 97.8371 7.15365 97.6939 7.84375C97.5637 8.53385 97.44 9.33464 97.3228 10.2461C97.2186 11.1576 97.121 12.1276 97.0298 13.1562C96.9387 14.1719 96.8671 15.2135 96.815 16.2812C96.7629 17.349 96.7304 18.3776 96.7173 19.3672C97.0298 18.2214 97.3163 17.0495 97.5767 15.8516C97.8502 14.6406 98.091 13.4688 98.2994 12.3359C98.5077 11.2031 98.6705 10.1354 98.7877 9.13281C98.9048 8.11719 98.9634 7.23177 98.9634 6.47656ZM108.234 30.793C108.69 30.793 109.152 30.6758 109.621 30.4414C110.103 30.207 110.584 29.8424 111.066 29.3477C111.561 28.8529 112.069 28.2148 112.59 27.4336C113.111 26.6393 113.644 25.6953 114.191 24.6016L114.387 24.1914L115.187 24.7969L114.992 25.207C114.289 26.6003 113.586 27.7917 112.883 28.7812C112.193 29.7708 111.509 30.5781 110.832 31.2031C110.168 31.8281 109.51 32.2839 108.859 32.5703C108.208 32.8568 107.583 33 106.984 33C106.138 33 105.383 32.8242 104.719 32.4727C104.055 32.1211 103.495 31.6458 103.039 31.0469C102.583 30.4349 102.238 29.7318 102.004 28.9375C101.756 28.1302 101.633 27.2839 101.633 26.3984C101.633 24.9922 101.828 23.7161 102.219 22.5703C102.596 21.4115 103.104 20.4219 103.742 19.6016C104.393 18.7812 105.129 18.1432 105.949 17.6875C106.769 17.2318 107.622 17.0039 108.508 17.0039C109.406 17.0039 110.09 17.2318 110.558 17.6875C111.04 18.1432 111.281 18.7161 111.281 19.4062C111.281 20.0703 111.092 20.6953 110.715 21.2812C110.337 21.8542 109.823 22.4206 109.172 22.9805C108.534 23.5273 107.792 24.0742 106.945 24.6211C106.099 25.1549 105.207 25.7083 104.269 26.2812C104.361 26.9583 104.517 27.5768 104.738 28.1367C104.959 28.6836 105.239 29.1589 105.578 29.5625C105.917 29.9531 106.307 30.2591 106.75 30.4805C107.193 30.6888 107.687 30.793 108.234 30.793ZM108.84 19.9922C108.84 19.4714 108.696 19.0612 108.41 18.7617C108.137 18.4622 107.798 18.3125 107.394 18.3125C107.056 18.3125 106.698 18.4362 106.32 18.6836C105.943 18.918 105.598 19.3021 105.285 19.8359C104.973 20.3568 104.712 21.0273 104.504 21.8477C104.295 22.668 104.191 23.6641 104.191 24.8359V25.2852C104.634 25.0508 105.122 24.7448 105.656 24.3672C106.203 23.9766 106.711 23.5469 107.18 23.0781C107.648 22.6094 108.039 22.1146 108.351 21.5938C108.677 21.0599 108.84 20.526 108.84 19.9922ZM113.911 24.6016L114.107 24.1914C114.302 23.8008 114.478 23.3971 114.634 22.9805C114.803 22.5638 114.946 22.1732 115.064 21.8086C115.181 21.431 115.272 21.099 115.337 20.8125C115.402 20.513 115.448 20.2852 115.474 20.1289C115.135 20.0898 114.81 20.0052 114.497 19.875C114.185 19.7448 113.911 19.569 113.677 19.3477C113.443 19.1263 113.26 18.8659 113.13 18.5664C112.987 18.2669 112.915 17.9284 112.915 17.5508C112.915 17.2513 112.967 16.9844 113.071 16.75C113.176 16.5156 113.319 16.3203 113.501 16.1641C113.67 16.0078 113.866 15.8906 114.087 15.8125C114.295 15.7214 114.517 15.6758 114.751 15.6758C115.064 15.6758 115.337 15.7409 115.571 15.8711C115.806 16.0013 116.001 16.1771 116.157 16.3984C116.314 16.6068 116.431 16.8542 116.509 17.1406C116.587 17.4141 116.626 17.7005 116.626 18C116.991 18 117.381 17.9479 117.798 17.8438C118.228 17.7396 118.657 17.6289 119.087 17.5117C119.517 17.3815 119.94 17.2643 120.357 17.1602C120.773 17.056 121.157 17.0039 121.509 17.0039C121.808 17.0039 122.049 17.069 122.232 17.1992C122.414 17.3164 122.505 17.5182 122.505 17.8047C122.505 18.013 122.44 18.3581 122.31 18.8398C122.193 19.3216 122.043 19.8815 121.86 20.5195C121.678 21.1576 121.476 21.8542 121.255 22.6094C121.047 23.3516 120.851 24.1068 120.669 24.875C120.487 25.6302 120.331 26.3659 120.2 27.082C120.083 27.7982 120.025 28.4362 120.025 28.9961C120.025 29.6992 120.103 30.1745 120.259 30.4219C120.415 30.6693 120.695 30.793 121.099 30.793C121.268 30.793 121.476 30.7214 121.724 30.5781C121.984 30.4219 122.297 30.1289 122.661 29.6992C123.026 29.2565 123.456 28.6315 123.95 27.8242C124.458 27.0039 125.044 25.9297 125.708 24.6016L125.903 24.1914L126.704 24.7969L126.509 25.207C125.728 26.7695 125.031 28.0521 124.419 29.0547C123.807 30.0573 123.241 30.8516 122.72 31.4375C122.212 32.0234 121.73 32.4336 121.275 32.668C120.819 32.8893 120.363 33 119.907 33C119.139 33 118.514 32.707 118.032 32.1211C117.551 31.5352 117.31 30.6302 117.31 29.4062C117.31 28.7422 117.401 28.0521 117.583 27.3359C117.765 26.6198 117.993 25.9102 118.267 25.207C118.54 24.4909 118.846 23.7878 119.185 23.0977C119.523 22.4076 119.842 21.7565 120.142 21.1445C120.454 20.5195 120.734 19.9401 120.982 19.4062C121.229 18.8724 121.405 18.4036 121.509 18L121.392 17.8828C121.183 17.8828 120.903 17.9935 120.552 18.2148C120.2 18.4362 119.803 18.6901 119.36 18.9766C118.931 19.25 118.469 19.5104 117.974 19.7578C117.479 20.0052 116.978 20.1549 116.47 20.207C116.444 20.3893 116.385 20.6562 116.294 21.0078C116.216 21.3594 116.105 21.75 115.962 22.1797C115.819 22.6094 115.656 23.0521 115.474 23.5078C115.291 23.9635 115.103 24.3932 114.907 24.7969L114.712 25.207L113.911 24.6016ZM114.868 16.7695C114.751 16.7695 114.653 16.8086 114.575 16.8867C114.497 16.9648 114.458 17.056 114.458 17.1602C114.458 17.3164 114.497 17.4531 114.575 17.5703C114.653 17.6745 114.751 17.7656 114.868 17.8438C114.985 17.9089 115.103 17.9609 115.22 18C115.35 18.026 115.461 18.0391 115.552 18.0391C115.552 17.6745 115.493 17.375 115.376 17.1406C115.259 16.8932 115.09 16.7695 114.868 16.7695Z" fill="#32FCB3"/>
</svg>
