<svg width="180" height="43" viewBox="0 0 180 43" fill="none" xmlns="http://www.w3.org/2000/svg">
<path d="M14.9886 10.832C15.2881 10.6107 15.555 10.3438 15.7894 10.0312C16.0368 9.71875 16.2451 9.38021 16.4144 9.01562C16.5836 8.65104 16.7139 8.26693 16.805 7.86328C16.8961 7.45964 16.9417 7.04948 16.9417 6.63281C16.9417 6.00781 16.831 5.38932 16.6097 4.77734C16.4014 4.15234 16.0563 3.59245 15.5745 3.09766C15.1058 2.58984 14.4938 2.17969 13.7386 1.86719C12.9834 1.55469 12.0654 1.39844 10.9847 1.39844C9.78677 1.39844 8.65396 1.59375 7.58625 1.98438C6.51854 2.375 5.58104 2.90234 4.77375 3.56641C3.97948 4.23047 3.34797 4.9987 2.87922 5.87109C2.41047 6.74349 2.17609 7.65495 2.17609 8.60547C2.17609 9.60807 2.41047 10.5 2.87922 11.2812C3.36099 12.0495 3.98599 12.7526 4.75422 13.3906C5.53547 14.0156 6.42089 14.5951 7.41047 15.1289C8.40005 15.6628 9.40917 16.1901 10.4378 16.7109C11.4665 17.2318 12.4756 17.7786 13.4652 18.3516C14.4547 18.9115 15.3336 19.543 16.1019 20.2461C16.8831 20.9492 17.5081 21.737 17.9769 22.6094C18.4586 23.4818 18.6995 24.4909 18.6995 25.6367C18.6995 26.7305 18.4391 27.7786 17.9183 28.7812C17.3974 29.7839 16.6813 30.6758 15.7698 31.457C14.8584 32.2253 13.7842 32.8372 12.5472 33.293C11.3232 33.7617 10.0016 33.9961 8.58234 33.9961C6.9938 33.9961 5.6787 33.8203 4.63703 33.4688C3.60839 33.1302 2.78807 32.7005 2.17609 32.1797C1.57714 31.6589 1.16047 31.099 0.926094 30.5C0.691719 29.888 0.574532 29.3216 0.574532 28.8008C0.574532 28.1628 0.672188 27.5898 0.8675 27.082C1.07583 26.5612 1.34927 26.099 1.68781 25.6953C2.02635 25.2786 2.40396 24.9206 2.82063 24.6211C3.25031 24.3086 3.68651 24.0482 4.12922 23.8398C4.58495 23.6185 5.02115 23.4427 5.43781 23.3125C5.8675 23.1693 6.25161 23.0651 6.59016 23L6.78547 23.9961C6.62922 24.0482 6.34276 24.1784 5.92609 24.3867C5.52245 24.582 5.09927 24.875 4.65656 25.2656C4.21385 25.6432 3.82323 26.1185 3.48469 26.6914C3.14615 27.2643 2.97688 27.9414 2.97688 28.7227C2.97688 29.2565 3.08755 29.7773 3.30891 30.2852C3.54328 30.793 3.88833 31.2487 4.34406 31.6523C4.79979 32.056 5.35969 32.3815 6.02375 32.6289C6.68781 32.8763 7.46255 33 8.34797 33C9.41568 33 10.3467 32.9023 11.1409 32.707C11.9482 32.4987 12.6383 32.2318 13.2113 31.9062C13.7972 31.5807 14.2724 31.2096 14.637 30.793C15.0146 30.3633 15.3076 29.9206 15.5159 29.4648C15.7373 29.0091 15.887 28.5599 15.9652 28.1172C16.0563 27.6615 16.1019 27.2513 16.1019 26.8867C16.1019 25.8971 15.874 25.0312 15.4183 24.2891C14.9626 23.5339 14.3571 22.8633 13.6019 22.2773C12.8597 21.6784 12.0133 21.138 11.0628 20.6562C10.1123 20.1615 9.13573 19.6732 8.13313 19.1914C7.14354 18.7096 6.17349 18.2083 5.22297 17.6875C4.27245 17.1667 3.41958 16.5742 2.66438 15.9102C1.92219 15.2461 1.32323 14.4909 0.8675 13.6445C0.411771 12.7852 0.183907 11.7826 0.183907 10.6367C0.183907 9.10026 0.502917 7.69401 1.14094 6.41797C1.77896 5.12891 2.63833 4.02865 3.71906 3.11719C4.79979 2.19271 6.04979 1.47656 7.46906 0.96875C8.90135 0.460938 10.4053 0.207031 11.9808 0.207031C13.3219 0.207031 14.4678 0.363281 15.4183 0.675781C16.3688 0.988281 17.1435 1.39844 17.7425 1.90625C18.3545 2.41406 18.7972 2.99349 19.0706 3.64453C19.3571 4.29557 19.5003 4.95964 19.5003 5.63672C19.5003 6.44401 19.3571 7.17969 19.0706 7.84375C18.7972 8.50781 18.4586 9.10026 18.055 9.62109C17.6644 10.1289 17.2412 10.5586 16.7855 10.9102C16.3297 11.2487 15.9261 11.4896 15.5745 11.6328L14.9886 10.832ZM23.9078 26.2031C23.9078 26.8411 23.8883 27.5182 23.8492 28.2344C23.8102 28.9375 23.7255 29.6471 23.5953 30.3633C23.4781 31.0664 23.3023 31.7565 23.068 32.4336C22.8336 33.0977 22.5146 33.7161 22.1109 34.2891L20.6266 33.8398C20.9521 32.7461 21.1474 31.6003 21.2125 30.4023C21.2776 29.2044 21.3102 28.0065 21.3102 26.8086C21.3102 25.5065 21.2711 24.2044 21.193 22.9023C21.1018 21.6003 21.0042 20.2982 20.9 18.9961C20.7828 17.681 20.6852 16.3594 20.607 15.0312C20.5159 13.7031 20.4703 12.362 20.4703 11.0078C20.4703 10.1875 20.5615 9.47135 20.7437 8.85938C20.913 8.2474 21.1409 7.73958 21.4273 7.33594C21.7138 6.93229 22.0328 6.63281 22.3844 6.4375C22.7359 6.22917 23.0875 6.125 23.4391 6.125C23.9339 6.125 24.3245 6.30078 24.6109 6.65234C24.9104 7.00391 25.1318 7.47917 25.275 8.07812C25.4182 8.67708 25.4898 9.3737 25.4898 10.168C25.5029 10.9622 25.4703 11.8021 25.3922 12.6875C25.3141 13.5729 25.2034 14.4779 25.0602 15.4023C24.9169 16.3268 24.7607 17.2253 24.5914 18.0977C24.4221 18.9701 24.2529 19.7839 24.0836 20.5391C23.9273 21.2943 23.7906 21.9388 23.6734 22.4727C23.6734 22.5768 23.6799 22.6875 23.693 22.8047C23.706 22.9089 23.7125 23.013 23.7125 23.1172C23.9859 22.5052 24.318 21.8477 24.7086 21.1445C25.1122 20.4284 25.5615 19.7643 26.0562 19.1523C26.5641 18.5404 27.1109 18.0326 27.6969 17.6289C28.2958 17.2122 28.9273 17.0039 29.5914 17.0039C30.568 17.0039 31.3036 17.3294 31.7984 17.9805C32.2932 18.6315 32.5406 19.569 32.5406 20.793C32.5406 21.6393 32.4951 22.4531 32.4039 23.2344C32.3128 24.0156 32.2086 24.7708 32.0914 25.5C31.9872 26.2161 31.8896 26.9128 31.7984 27.5898C31.7073 28.2669 31.6617 28.9375 31.6617 29.6016C31.6617 30.3958 31.8635 30.793 32.2672 30.793C32.4625 30.793 32.7099 30.6237 33.0094 30.2852C33.3219 29.9336 33.6669 29.4714 34.0445 28.8984C34.4221 28.3255 34.8193 27.668 35.2359 26.9258C35.6526 26.1836 36.0628 25.4089 36.4664 24.6016L36.6617 24.1914L37.4625 24.7969L37.2672 25.207C36.8115 26.1055 36.3362 27.0169 35.8414 27.9414C35.3466 28.8659 34.8388 29.7057 34.318 30.4609C33.7971 31.2031 33.2633 31.8151 32.7164 32.2969C32.1826 32.7656 31.6487 33 31.1148 33C30.8805 33 30.6396 32.9609 30.3922 32.8828C30.1578 32.8047 29.943 32.668 29.7477 32.4727C29.5523 32.2773 29.3896 32.0169 29.2594 31.6914C29.1292 31.3529 29.0641 30.9232 29.0641 30.4023C29.0641 29.8815 29.0901 29.3151 29.1422 28.7031C29.1943 28.0911 29.2529 27.4661 29.318 26.8281C29.3961 26.1771 29.4807 25.5326 29.5719 24.8945C29.663 24.2565 29.7411 23.6576 29.8062 23.0977C29.8844 22.5378 29.9495 22.0365 30.0016 21.5938C30.0536 21.138 30.0797 20.7669 30.0797 20.4805C30.0797 19.7383 29.9755 19.1979 29.7672 18.8594C29.5589 18.5208 29.2464 18.3516 28.8297 18.3516C28.3089 18.3516 27.8076 18.5794 27.3258 19.0352C26.844 19.4909 26.3883 20.0638 25.9586 20.7539C25.5419 21.431 25.1578 22.1667 24.8062 22.9609C24.4547 23.7422 24.1422 24.4648 23.8687 25.1289C23.8687 25.3242 23.8753 25.5195 23.8883 25.7148C23.9013 25.8971 23.9078 26.0599 23.9078 26.2031ZM22.6383 9.48438C22.6383 10.0182 22.6578 10.6693 22.6969 11.4375C22.749 12.1927 22.8076 13.013 22.8727 13.8984C22.9508 14.7839 23.0289 15.7083 23.107 16.6719C23.1982 17.6354 23.2893 18.5859 23.3805 19.5234C23.5237 18.7943 23.6669 17.9935 23.8102 17.1211C23.9534 16.2357 24.0771 15.3503 24.1812 14.4648C24.2984 13.5664 24.3831 12.694 24.4352 11.8477C24.5003 11.0013 24.5133 10.2526 24.4742 9.60156C24.4482 8.95052 24.3635 8.42969 24.2203 8.03906C24.0771 7.63542 23.8687 7.43359 23.5953 7.43359C23.3479 7.43359 23.1266 7.58333 22.9312 7.88281C22.7359 8.18229 22.6383 8.71615 22.6383 9.48438ZM52.7489 24.7969L52.5341 25.207C52.0914 26.0924 51.4989 26.8021 50.7567 27.3359C50.0276 27.8568 49.2333 28.1953 48.3739 28.3516C48.1395 29.0156 47.8335 29.6341 47.4559 30.207C47.0914 30.7669 46.6682 31.2552 46.1864 31.6719C45.7177 32.0885 45.1838 32.4141 44.5848 32.6484C43.9989 32.8828 43.3609 33 42.6708 33C41.6682 33 40.7632 32.7917 39.9559 32.375C39.1617 31.9453 38.4846 31.3724 37.9247 30.6562C37.3648 29.9271 36.9351 29.0807 36.6356 28.1172C36.3361 27.1406 36.1864 26.099 36.1864 24.9922C36.1864 24.0286 36.2971 23.1562 36.5184 22.375C36.7398 21.5807 37.0197 20.8776 37.3583 20.2656C37.6968 19.6406 38.0744 19.1003 38.4911 18.6445C38.9078 18.1758 39.3179 17.7917 39.7216 17.4922C40.1252 17.1927 40.4898 16.9714 40.8153 16.8281C41.1539 16.6719 41.4078 16.5938 41.577 16.5938L41.8309 17.2773C41.2971 17.668 40.8218 18.2148 40.4052 18.918C40.0406 19.5169 39.7085 20.3112 39.4091 21.3008C39.1226 22.2904 38.9794 23.5208 38.9794 24.9922C38.9794 25.8906 39.064 26.763 39.2333 27.6094C39.4026 28.4557 39.6499 29.2044 39.9755 29.8555C40.301 30.5065 40.6981 31.0273 41.1669 31.418C41.6486 31.8086 42.189 32.0039 42.788 32.0039C43.6083 32.0039 44.2854 31.6784 44.8192 31.0273C45.3661 30.3633 45.7697 29.4583 46.0302 28.3125C45.3531 28.1693 44.7085 27.9023 44.0966 27.5117C43.4846 27.1211 42.9442 26.6393 42.4755 26.0664C42.0067 25.4805 41.6291 24.8099 41.3427 24.0547C41.0692 23.2995 40.9325 22.4792 40.9325 21.5938C40.9325 20.8646 41.0236 20.2266 41.2059 19.6797C41.4012 19.1198 41.6552 18.6576 41.9677 18.293C42.2802 17.9154 42.6382 17.6354 43.0419 17.4531C43.4585 17.2578 43.8947 17.1602 44.3505 17.1602C44.8843 17.1602 45.4312 17.3164 45.9911 17.6289C46.551 17.9284 47.0588 18.3841 47.5145 18.9961C47.9703 19.5951 48.3414 20.3503 48.6278 21.2617C48.9143 22.1732 49.0575 23.2344 49.0575 24.4453C49.0575 24.901 49.0315 25.3503 48.9794 25.793C48.9273 26.2357 48.8492 26.6654 48.745 27.082C49.37 26.8997 49.9364 26.6068 50.4442 26.2031C50.9651 25.7995 51.3947 25.2656 51.7333 24.6016L51.9481 24.1914L52.7489 24.7969ZM42.2216 21.4375C42.2216 22.2057 42.3257 22.9154 42.5341 23.5664C42.7554 24.2044 43.0484 24.7708 43.413 25.2656C43.7776 25.7474 44.2007 26.151 44.6825 26.4766C45.1643 26.8021 45.6786 27.0299 46.2255 27.1602C46.2906 26.7956 46.3296 26.418 46.3427 26.0273C46.3687 25.6237 46.3817 25.2135 46.3817 24.7969C46.3817 23.8724 46.3101 23.0391 46.1669 22.2969C46.0236 21.5417 45.8348 20.9036 45.6005 20.3828C45.3661 19.849 45.0927 19.4388 44.7802 19.1523C44.4677 18.8659 44.1486 18.7227 43.8231 18.7227C43.3804 18.7227 43.0028 18.9635 42.6903 19.4453C42.3778 19.9141 42.2216 20.5781 42.2216 21.4375ZM54.2463 20.6758C54.4676 20.194 54.7345 19.7318 55.047 19.2891C55.3595 18.8464 55.7176 18.4557 56.1213 18.1172C56.5249 17.7786 56.9741 17.5117 57.4689 17.3164C57.9637 17.1081 58.5041 17.0039 59.09 17.0039C59.8713 17.0039 60.5614 17.1927 61.1603 17.5703C61.7593 17.9349 62.2606 18.4297 62.6642 19.0547C63.0679 19.6667 63.3739 20.3828 63.5822 21.2031C63.7905 22.0104 63.8947 22.8503 63.8947 23.7227C63.8947 25.0638 63.758 26.2747 63.4845 27.3555C63.2241 28.4232 62.866 29.3607 62.4103 30.168C63.1134 29.6341 63.8231 28.9245 64.5392 28.0391C65.2684 27.1536 65.9845 26.0078 66.6877 24.6016L66.883 24.1914L67.6838 24.7969L67.4884 25.207C66.8895 26.4049 66.2319 27.4857 65.5158 28.4492C64.7996 29.4128 64.0379 30.2331 63.2306 30.9102C62.4364 31.5742 61.603 32.0885 60.7306 32.4531C59.8582 32.8177 58.9663 33 58.0548 33C57.2476 33 56.4989 32.8242 55.8088 32.4727C55.1317 32.1211 54.6108 31.6849 54.2463 31.1641V40.4023C54.2463 40.8971 54.2072 41.3073 54.1291 41.6328C54.064 41.9714 53.9468 42.2383 53.7775 42.4336C53.6213 42.6419 53.4064 42.7852 53.133 42.8633C52.8595 42.9544 52.5275 43 52.1369 43C51.8374 43 51.6291 42.9479 51.5119 42.8438C51.3947 42.7526 51.3361 42.6029 51.3361 42.3945C51.3361 42.3034 51.3491 42.1406 51.3752 41.9062C51.4012 41.6719 51.4272 41.3138 51.4533 40.832C51.4793 40.3633 51.5054 39.7383 51.5314 38.957C51.5574 38.1888 51.5705 37.2057 51.5705 36.0078V25.207C51.5705 23.7617 51.564 22.6094 51.5509 21.75C51.5379 20.8776 51.5249 20.2005 51.5119 19.7188C51.4989 19.224 51.4858 18.8724 51.4728 18.6641C51.4598 18.4557 51.4533 18.2734 51.4533 18.1172C51.4533 17.987 51.5184 17.8568 51.6486 17.7266C51.7788 17.5964 51.9481 17.4792 52.1564 17.375C52.3647 17.2708 52.5861 17.1862 52.8205 17.1211C53.0679 17.043 53.3022 17.0039 53.5236 17.0039C53.7449 17.0039 53.9207 17.0625 54.0509 17.1797C54.1811 17.2969 54.2463 17.5052 54.2463 17.8047V20.6758ZM58.0548 18.7227C57.508 18.7227 57.0002 18.9115 56.5314 19.2891C56.0757 19.6667 55.6785 20.1549 55.34 20.7539C55.0145 21.3398 54.7541 21.9909 54.5588 22.707C54.3765 23.4232 54.2853 24.1198 54.2853 24.7969V27.043C54.2853 27.7461 54.3765 28.3841 54.5588 28.957C54.7541 29.5299 55.008 30.0182 55.3205 30.4219C55.633 30.8255 55.9976 31.138 56.4142 31.3594C56.8439 31.5677 57.2931 31.6719 57.7619 31.6719C58.8686 31.6719 59.702 31.099 60.2619 29.9531C60.8348 28.8073 61.1213 27.0104 61.1213 24.5625C61.1213 23.7292 61.0627 22.9544 60.9455 22.2383C60.8283 21.5221 60.646 20.9036 60.3986 20.3828C60.1512 19.862 59.8322 19.4583 59.4416 19.1719C59.0509 18.8724 58.5887 18.7227 58.0548 18.7227ZM69.1616 20.6758C69.3829 20.194 69.6498 19.7318 69.9623 19.2891C70.2748 18.8464 70.6329 18.4557 71.0366 18.1172C71.4402 17.7786 71.8894 17.5117 72.3842 17.3164C72.879 17.1081 73.4194 17.0039 74.0053 17.0039C74.7866 17.0039 75.4767 17.1927 76.0756 17.5703C76.6746 17.9349 77.1759 18.4297 77.5795 19.0547C77.9832 19.6667 78.2892 20.3828 78.4975 21.2031C78.7058 22.0104 78.81 22.8503 78.81 23.7227C78.81 25.0638 78.6733 26.2747 78.3998 27.3555C78.1394 28.4232 77.7814 29.3607 77.3256 30.168C78.0287 29.6341 78.7384 28.9245 79.4545 28.0391C80.1837 27.1536 80.8998 26.0078 81.603 24.6016L81.7983 24.1914L82.5991 24.7969L82.4037 25.207C81.8048 26.4049 81.1472 27.4857 80.4311 28.4492C79.7149 29.4128 78.9532 30.2331 78.1459 30.9102C77.3517 31.5742 76.5183 32.0885 75.6459 32.4531C74.7735 32.8177 73.8816 33 72.9702 33C72.1629 33 71.4142 32.8242 70.7241 32.4727C70.047 32.1211 69.5261 31.6849 69.1616 31.1641V40.4023C69.1616 40.8971 69.1225 41.3073 69.0444 41.6328C68.9793 41.9714 68.8621 42.2383 68.6928 42.4336C68.5366 42.6419 68.3217 42.7852 68.0483 42.8633C67.7748 42.9544 67.4428 43 67.0522 43C66.7527 43 66.5444 42.9479 66.4272 42.8438C66.31 42.7526 66.2514 42.6029 66.2514 42.3945C66.2514 42.3034 66.2644 42.1406 66.2905 41.9062C66.3165 41.6719 66.3425 41.3138 66.3686 40.832C66.3946 40.3633 66.4207 39.7383 66.4467 38.957C66.4728 38.1888 66.4858 37.2057 66.4858 36.0078V25.207C66.4858 23.7617 66.4793 22.6094 66.4662 21.75C66.4532 20.8776 66.4402 20.2005 66.4272 19.7188C66.4142 19.224 66.4011 18.8724 66.3881 18.6641C66.3751 18.4557 66.3686 18.2734 66.3686 18.1172C66.3686 17.987 66.4337 17.8568 66.5639 17.7266C66.6941 17.5964 66.8634 17.4792 67.0717 17.375C67.28 17.2708 67.5014 17.1862 67.7358 17.1211C67.9832 17.043 68.2175 17.0039 68.4389 17.0039C68.6603 17.0039 68.836 17.0625 68.9662 17.1797C69.0965 17.2969 69.1616 17.5052 69.1616 17.8047V20.6758ZM72.9702 18.7227C72.4233 18.7227 71.9155 18.9115 71.4467 19.2891C70.991 19.6667 70.5939 20.1549 70.2553 20.7539C69.9298 21.3398 69.6694 21.9909 69.4741 22.707C69.2918 23.4232 69.2006 24.1198 69.2006 24.7969V27.043C69.2006 27.7461 69.2918 28.3841 69.4741 28.957C69.6694 29.5299 69.9233 30.0182 70.2358 30.4219C70.5483 30.8255 70.9129 31.138 71.3295 31.3594C71.7592 31.5677 72.2084 31.6719 72.6772 31.6719C73.784 31.6719 74.6173 31.099 75.1772 29.9531C75.7501 28.8073 76.0366 27.0104 76.0366 24.5625C76.0366 23.7292 75.978 22.9544 75.8608 22.2383C75.7436 21.5221 75.5613 20.9036 75.3139 20.3828C75.0665 19.862 74.7475 19.4583 74.3569 19.1719C73.9662 18.8724 73.504 18.7227 72.9702 18.7227ZM82.5144 24.4062L82.3191 24.7969L82.1237 25.207L81.323 24.6016L81.5183 24.1914C81.8438 23.5273 82.1107 22.8633 82.3191 22.1992C82.5404 21.5221 82.7162 20.8906 82.8464 20.3047C82.9896 19.7188 83.1068 19.2044 83.198 18.7617C83.2891 18.319 83.3803 18 83.4714 17.8047C83.5495 17.6484 83.6602 17.5247 83.8034 17.4336C83.9597 17.3294 84.1159 17.2448 84.2722 17.1797C84.4415 17.1146 84.5977 17.069 84.7409 17.043C84.8972 17.0169 85.0079 17.0039 85.073 17.0039C85.3594 17.0039 85.5482 17.0625 85.6394 17.1797C85.7435 17.2969 85.7956 17.5052 85.7956 17.8047C85.7956 17.9479 85.7631 18.306 85.698 18.8789C85.6459 19.4388 85.5808 20.1484 85.5027 21.0078C85.4376 21.8542 85.3724 22.8112 85.3073 23.8789C85.2553 24.9336 85.2292 26.0273 85.2292 27.1602C85.2292 27.9805 85.2683 28.6315 85.3464 29.1133C85.4245 29.582 85.5222 29.9336 85.6394 30.168C85.7696 30.4023 85.9063 30.5521 86.0495 30.6172C86.2058 30.6823 86.362 30.7148 86.5183 30.7148C86.7266 30.7148 86.961 30.6237 87.2214 30.4414C87.4818 30.2591 87.7878 29.9401 88.1394 29.4844C88.4909 29.0156 88.8946 28.3906 89.3503 27.6094C89.806 26.8151 90.3399 25.8125 90.9519 24.6016L91.1667 24.1914L91.9675 24.7969L91.7527 25.207C91.2579 26.1706 90.7631 27.1211 90.2683 28.0586C89.7865 28.9961 89.2917 29.8294 88.7839 30.5586C88.2891 31.2878 87.7878 31.8802 87.28 32.3359C86.7722 32.7786 86.2644 33 85.7566 33C85.2227 33 84.7605 32.8958 84.3698 32.6875C83.9922 32.4661 83.6732 32.1081 83.4128 31.6133C83.1654 31.1185 82.9766 30.4674 82.8464 29.6602C82.7292 28.8398 82.6706 27.8307 82.6706 26.6328C82.6706 26.2943 82.6706 25.9427 82.6706 25.5781C82.6706 25.2005 82.6836 24.8099 82.7097 24.4062H82.5144ZM86.5183 13C86.5183 13.4557 86.362 13.8398 86.0495 14.1523C85.7501 14.4518 85.3724 14.6016 84.9167 14.6016C84.474 14.6016 84.0964 14.4518 83.7839 14.1523C83.4714 13.8398 83.3152 13.4557 83.3152 13C83.3152 12.5573 83.4714 12.1797 83.7839 11.8672C84.0964 11.5547 84.474 11.3984 84.9167 11.3984C85.3724 11.3984 85.7501 11.5547 86.0495 11.8672C86.362 12.1797 86.5183 12.5573 86.5183 13ZM98.4062 18.3516C98.0417 18.3516 97.6315 18.5143 97.1758 18.8398C96.7331 19.1654 96.2839 19.5885 95.8281 20.1094C95.3724 20.6172 94.9297 21.1901 94.5 21.8281C94.0833 22.4661 93.7188 23.0977 93.4062 23.7227C93.3672 24.8685 93.3281 26.1185 93.2891 27.4727C93.263 28.8268 93.25 30.2721 93.25 31.8086C93.25 32.0039 93.1589 32.1797 92.9766 32.3359C92.8073 32.4792 92.6055 32.6029 92.3711 32.707C92.1367 32.7982 91.8958 32.8698 91.6484 32.9219C91.401 32.974 91.1992 33 91.043 33C90.8477 33 90.6654 32.9414 90.4961 32.8242C90.3268 32.707 90.2422 32.4466 90.2422 32.043C90.2422 31.8477 90.2617 31.6068 90.3008 31.3203C90.3398 31.0208 90.3919 30.7018 90.457 30.3633C90.5091 30.0247 90.5742 29.6797 90.6523 29.3281C90.7174 28.9635 90.7826 28.625 90.8477 28.3125V18.7617C90.8477 18.5013 90.8542 18.2995 90.8672 18.1562C90.8672 18 90.8867 17.8828 90.9258 17.8047C91.0039 17.6224 91.1406 17.4792 91.3359 17.375C91.5312 17.2708 91.7396 17.1927 91.9609 17.1406C92.1823 17.0755 92.3971 17.0365 92.6055 17.0234C92.8138 17.0104 92.9766 17.0039 93.0938 17.0039C93.3151 17.0039 93.4648 17.0625 93.543 17.1797C93.6341 17.2969 93.6797 17.5052 93.6797 17.8047C93.6797 17.7656 93.6471 18.0846 93.582 18.7617C93.5299 19.4388 93.4844 20.4089 93.4453 21.6719C93.8359 21.0599 94.2591 20.474 94.7148 19.9141C95.1706 19.3542 95.6458 18.8594 96.1406 18.4297C96.6354 18 97.1432 17.6549 97.6641 17.3945C98.1979 17.1341 98.7383 17.0039 99.2852 17.0039C100.262 17.0039 100.978 17.3164 101.434 17.9414C101.889 18.5534 102.117 19.3867 102.117 20.4414C102.117 21.1055 102.072 21.8477 101.98 22.668C101.902 23.4753 101.805 24.3021 101.688 25.1484C101.583 25.9818 101.486 26.8021 101.395 27.6094C101.316 28.4036 101.277 29.1328 101.277 29.7969C101.277 30.6562 101.544 31.0859 102.078 31.0859C102.247 31.0859 102.443 31.0013 102.664 30.832C102.898 30.6497 103.185 30.3177 103.523 29.8359C103.875 29.3542 104.292 28.6966 104.773 27.8633C105.255 27.0169 105.828 25.9297 106.492 24.6016L106.688 24.1914L107.488 24.7969L107.293 25.207C106.512 26.7695 105.815 28.0521 105.203 29.0547C104.604 30.0573 104.057 30.8516 103.562 31.4375C103.068 32.0234 102.605 32.4336 102.176 32.668C101.746 32.8893 101.316 33 100.887 33C100.613 33 100.34 32.9609 100.066 32.8828C99.793 32.8047 99.5521 32.668 99.3438 32.4727C99.1354 32.2773 98.9661 32.0169 98.8359 31.6914C98.7057 31.3529 98.6406 30.9232 98.6406 30.4023C98.6406 29.6211 98.6927 28.7422 98.7969 27.7656C98.901 26.7891 99.0182 25.8125 99.1484 24.8359C99.2786 23.8594 99.3958 22.9414 99.5 22.082C99.6042 21.2096 99.6562 20.5 99.6562 19.9531C99.6562 19.4714 99.5521 19.0872 99.3438 18.8008C99.1354 18.5013 98.8229 18.3516 98.4062 18.3516ZM111.876 40.4023C111.876 39.8294 111.98 39.25 112.189 38.6641C112.41 38.0781 112.71 37.4792 113.087 36.8672C113.465 36.2552 113.901 35.6172 114.396 34.9531C114.904 34.3021 115.45 33.625 116.036 32.9219V29.2305C115.724 29.8424 115.372 30.3828 114.982 30.8516C114.591 31.3203 114.174 31.7174 113.732 32.043C113.302 32.3555 112.853 32.5964 112.384 32.7656C111.928 32.9219 111.479 33 111.036 33C110.424 33 109.832 32.8503 109.259 32.5508C108.699 32.2513 108.198 31.8021 107.755 31.2031C107.312 30.5911 106.961 29.8229 106.7 28.8984C106.44 27.974 106.31 26.8867 106.31 25.6367C106.31 24.582 106.434 23.5404 106.681 22.5117C106.928 21.4831 107.299 20.5651 107.794 19.7578C108.289 18.9375 108.901 18.2734 109.63 17.7656C110.359 17.2578 111.212 17.0039 112.189 17.0039C112.957 17.0039 113.673 17.1602 114.337 17.4727C115.014 17.7852 115.581 18.2409 116.036 18.8398V18.6055C116.036 18.3581 116.108 18.1367 116.251 17.9414C116.408 17.7331 116.596 17.5638 116.818 17.4336C117.052 17.2904 117.293 17.1862 117.54 17.1211C117.801 17.043 118.029 17.0039 118.224 17.0039C118.445 17.0039 118.602 17.0365 118.693 17.1016C118.784 17.1536 118.829 17.2513 118.829 17.3945C118.829 17.6029 118.803 18.0716 118.751 18.8008C118.699 19.5299 118.673 20.5977 118.673 22.0039V30.4805C118.999 30.0768 119.344 29.6276 119.708 29.1328C120.073 28.638 120.437 28.1237 120.802 27.5898C121.167 27.043 121.518 26.4831 121.857 25.9102C122.208 25.3372 122.534 24.7643 122.833 24.1914L123.029 23.8008L123.829 24.4062L123.634 24.7969C123.322 25.4219 122.957 26.0729 122.54 26.75C122.137 27.4141 121.707 28.0716 121.251 28.7227C120.809 29.3607 120.359 29.9792 119.904 30.5781C119.461 31.1641 119.051 31.6914 118.673 32.1602V36.3984C118.673 37.5964 118.562 38.612 118.341 39.4453C118.133 40.2917 117.84 40.9753 117.462 41.4961C117.098 42.0299 116.655 42.4141 116.134 42.6484C115.626 42.8828 115.073 43 114.474 43C113.732 43 113.113 42.7656 112.618 42.2969C112.124 41.8411 111.876 41.2096 111.876 40.4023ZM112.228 31.0078C112.631 31.0078 113.029 30.8906 113.419 30.6562C113.823 30.4219 114.194 30.1224 114.533 29.7578C114.871 29.3932 115.171 28.9961 115.431 28.5664C115.704 28.1237 115.906 27.694 116.036 27.2773V21.7695C116.036 21.1836 115.945 20.6562 115.763 20.1875C115.581 19.7057 115.34 19.3021 115.04 18.9766C114.741 18.638 114.396 18.3776 114.005 18.1953C113.628 18.013 113.237 17.9219 112.833 17.9219C112.208 17.9219 111.661 18.1107 111.193 18.4883C110.724 18.8529 110.333 19.3411 110.021 19.9531C109.708 20.5521 109.474 21.2422 109.318 22.0234C109.174 22.8047 109.103 23.599 109.103 24.4062C109.103 25.4089 109.161 26.3138 109.279 27.1211C109.409 27.9284 109.604 28.625 109.865 29.2109C110.125 29.7839 110.45 30.2266 110.841 30.5391C111.232 30.8516 111.694 31.0078 112.228 31.0078ZM114.259 41.8086C114.467 41.8086 114.676 41.763 114.884 41.6719C115.105 41.5938 115.301 41.4049 115.47 41.1055C115.639 40.806 115.776 40.3633 115.88 39.7773C115.984 39.1914 116.036 38.3971 116.036 37.3945V34.4844C115.138 35.5651 114.402 36.5872 113.829 37.5508C113.269 38.5273 112.99 39.4388 112.99 40.2852C112.99 40.6888 113.1 41.0404 113.322 41.3398C113.543 41.6523 113.855 41.8086 114.259 41.8086ZM144.461 10.793C145.164 10.194 145.704 9.45833 146.082 8.58594C146.473 7.70052 146.668 6.70443 146.668 5.59766C146.668 4.9987 146.59 4.43229 146.433 3.89844C146.29 3.36458 146.069 2.90234 145.769 2.51172C145.483 2.10807 145.125 1.78906 144.695 1.55469C144.278 1.32031 143.803 1.20312 143.269 1.20312C142.814 1.20312 142.377 1.30729 141.961 1.51562C141.557 1.71094 141.199 2.01042 140.887 2.41406C140.574 2.80469 140.32 3.30599 140.125 3.91797C139.943 4.51693 139.851 5.21354 139.851 6.00781C139.851 6.80208 139.91 7.7526 140.027 8.85938C140.157 9.95312 140.301 11.1771 140.457 12.5312C140.613 13.8724 140.75 15.3242 140.867 16.8867C140.997 18.4492 141.062 20.0898 141.062 21.8086C141.062 22.694 140.984 23.5339 140.828 24.3281C140.685 25.1094 140.476 25.8385 140.203 26.5156C139.93 27.1927 139.604 27.8177 139.226 28.3906C138.862 28.9635 138.458 29.4844 138.015 29.9531C138.745 30.2917 139.461 30.6628 140.164 31.0664C140.88 31.4701 141.583 31.8802 142.273 32.2969C142.963 32.7005 143.66 33.0911 144.363 33.4688C145.066 33.8594 145.776 34.1979 146.492 34.4844C147.208 34.7839 147.944 35.0247 148.699 35.207C149.454 35.3893 150.242 35.4805 151.062 35.4805C152.612 35.4805 153.81 35.2526 154.656 34.7969L155.066 35.3242C154.793 35.5586 154.415 35.806 153.933 36.0664C153.465 36.3398 152.931 36.5872 152.332 36.8086C151.746 37.043 151.121 37.2318 150.457 37.375C149.793 37.5312 149.129 37.6094 148.465 37.6094C147.045 37.6094 145.737 37.4076 144.539 37.0039C143.341 36.6133 142.234 36.125 141.219 35.5391C140.203 34.9531 139.259 34.3216 138.387 33.6445C137.514 32.9674 136.687 32.3424 135.906 31.7695C135.138 32.2513 134.363 32.6094 133.582 32.8438C132.814 33.0781 132.104 33.1953 131.453 33.1953C130.906 33.1953 130.45 33.1302 130.086 33C129.708 32.8568 129.409 32.681 129.187 32.4727C128.953 32.2643 128.79 32.0299 128.699 31.7695C128.595 31.5091 128.543 31.2552 128.543 31.0078C128.543 30.7083 128.634 30.4154 128.816 30.1289C128.999 29.8424 129.265 29.5885 129.617 29.3672C129.956 29.1328 130.366 28.9505 130.848 28.8203C131.329 28.6771 131.87 28.6055 132.469 28.6055C133.133 28.6055 133.771 28.6641 134.383 28.7812C135.008 28.8984 135.62 29.0482 136.219 29.2305C136.7 28.4753 137.091 27.5443 137.39 26.4375C137.703 25.3177 137.859 23.9701 137.859 22.3945C137.859 20.6758 137.794 19.1133 137.664 17.707C137.547 16.2878 137.41 14.9596 137.254 13.7227C137.111 12.4727 136.974 11.2747 136.844 10.1289C136.726 8.97005 136.668 7.79167 136.668 6.59375C136.668 5.53906 136.857 4.61458 137.234 3.82031C137.625 3.01302 138.12 2.34245 138.719 1.80859C139.331 1.27474 140.014 0.877604 140.769 0.617188C141.538 0.34375 142.299 0.207031 143.055 0.207031C143.901 0.207031 144.676 0.33724 145.379 0.597656C146.095 0.858073 146.707 1.21615 147.215 1.67188C147.736 2.11458 148.139 2.64193 148.426 3.25391C148.712 3.85286 148.855 4.50391 148.855 5.20703C148.855 5.96224 148.732 6.67188 148.484 7.33594C148.237 7.98698 147.924 8.58594 147.547 9.13281C147.182 9.66667 146.778 10.1419 146.336 10.5586C145.893 10.9753 145.47 11.3203 145.066 11.5938L144.461 10.793ZM131.453 32.1992C131.948 32.1992 132.482 32.1081 133.055 31.9258C133.627 31.7305 134.187 31.4115 134.734 30.9688C134.187 30.6302 133.66 30.3503 133.152 30.1289C132.657 29.9076 132.163 29.7969 131.668 29.7969C131.095 29.7969 130.62 29.901 130.242 30.1094C129.851 30.3047 129.656 30.6042 129.656 31.0078C129.656 31.4115 129.819 31.7109 130.144 31.9062C130.47 32.1016 130.906 32.1992 131.453 32.1992ZM148.38 24.4062L148.185 24.7969L147.989 25.207L147.189 24.6016L147.384 24.1914C147.709 23.5273 147.976 22.8633 148.185 22.1992C148.406 21.5221 148.582 20.8906 148.712 20.3047C148.855 19.7188 148.972 19.2044 149.064 18.7617C149.155 18.319 149.246 18 149.337 17.8047C149.415 17.6484 149.526 17.5247 149.669 17.4336C149.825 17.3294 149.982 17.2448 150.138 17.1797C150.307 17.1146 150.463 17.069 150.607 17.043C150.763 17.0169 150.873 17.0039 150.939 17.0039C151.225 17.0039 151.414 17.0625 151.505 17.1797C151.609 17.2969 151.661 17.5052 151.661 17.8047C151.661 17.9479 151.629 18.306 151.564 18.8789C151.512 19.4388 151.446 20.1484 151.368 21.0078C151.303 21.8542 151.238 22.8112 151.173 23.8789C151.121 24.9336 151.095 26.0273 151.095 27.1602C151.095 27.9805 151.134 28.6315 151.212 29.1133C151.29 29.582 151.388 29.9336 151.505 30.168C151.635 30.4023 151.772 30.5521 151.915 30.6172C152.071 30.6823 152.228 30.7148 152.384 30.7148C152.592 30.7148 152.827 30.6237 153.087 30.4414C153.347 30.2591 153.653 29.9401 154.005 29.4844C154.357 29.0156 154.76 28.3906 155.216 27.6094C155.672 26.8151 156.206 25.8125 156.818 24.6016L157.032 24.1914L157.833 24.7969L157.618 25.207C157.123 26.1706 156.629 27.1211 156.134 28.0586C155.652 28.9961 155.157 29.8294 154.65 30.5586C154.155 31.2878 153.653 31.8802 153.146 32.3359C152.638 32.7786 152.13 33 151.622 33C151.088 33 150.626 32.8958 150.235 32.6875C149.858 32.4661 149.539 32.1081 149.278 31.6133C149.031 31.1185 148.842 30.4674 148.712 29.6602C148.595 28.8398 148.536 27.8307 148.536 26.6328C148.536 26.2943 148.536 25.9427 148.536 25.5781C148.536 25.2005 148.549 24.8099 148.575 24.4062H148.38ZM152.384 13C152.384 13.4557 152.228 13.8398 151.915 14.1523C151.616 14.4518 151.238 14.6016 150.782 14.6016C150.34 14.6016 149.962 14.4518 149.65 14.1523C149.337 13.8398 149.181 13.4557 149.181 13C149.181 12.5573 149.337 12.1797 149.65 11.8672C149.962 11.5547 150.34 11.3984 150.782 11.3984C151.238 11.3984 151.616 11.5547 151.915 11.8672C152.228 12.1797 152.384 12.5573 152.384 13ZM168.159 26.2031C168.159 27.0885 168.022 27.9414 167.748 28.7617C167.488 29.569 167.097 30.2917 166.577 30.9297C166.069 31.5547 165.431 32.056 164.663 32.4336C163.907 32.8112 163.041 33 162.065 33C161.362 33 160.73 32.8893 160.17 32.668C159.623 32.4336 159.155 32.1276 158.764 31.75C158.373 31.3594 158.074 30.9232 157.866 30.4414C157.657 29.9466 157.553 29.4388 157.553 28.918C157.553 28.3971 157.651 27.9154 157.846 27.4727C158.054 27.0169 158.328 26.6328 158.666 26.3203C159.018 25.9948 159.415 25.7409 159.858 25.5586C160.301 25.3763 160.769 25.2852 161.264 25.2852C161.577 25.2852 161.902 25.3242 162.241 25.4023V25.9688C161.824 25.9688 161.414 26.0534 161.01 26.2227C160.62 26.3919 160.268 26.6263 159.955 26.9258C159.656 27.2122 159.415 27.5638 159.233 27.9805C159.051 28.3841 158.959 28.8203 158.959 29.2891C158.959 30.1484 159.252 30.8385 159.838 31.3594C160.437 31.8672 161.251 32.1211 162.28 32.1211C162.801 32.1211 163.276 32.0234 163.705 31.8281C164.135 31.6198 164.5 31.3398 164.799 30.9883C165.112 30.6237 165.346 30.194 165.502 29.6992C165.672 29.2044 165.756 28.6641 165.756 28.0781C165.756 27.5182 165.646 26.9974 165.424 26.5156C165.203 26.0339 164.91 25.5781 164.545 25.1484C164.181 24.7188 163.764 24.3151 163.295 23.9375C162.84 23.5599 162.371 23.2018 161.889 22.8633C161.42 22.5117 160.958 22.1732 160.502 21.8477C160.047 21.5221 159.649 21.1966 159.311 20.8711L157.358 25.207L156.557 24.6016L158.549 20.2461C158.067 19.7904 157.709 19.3607 157.475 18.957C157.254 18.5404 157.143 18.0456 157.143 17.4727C157.143 17.1602 157.195 16.8672 157.299 16.5938C157.416 16.3073 157.566 16.0664 157.748 15.8711C157.944 15.6628 158.165 15.5 158.413 15.3828C158.66 15.2656 158.92 15.207 159.194 15.207C159.689 15.207 160.06 15.3503 160.307 15.6367C160.554 15.9102 160.678 16.2552 160.678 16.6719C160.678 16.8672 160.659 17.0755 160.62 17.2969C160.58 17.5052 160.528 17.7201 160.463 17.9414C160.411 18.1497 160.353 18.3451 160.288 18.5273C160.235 18.7096 160.19 18.8659 160.151 18.9961C160.541 19.2956 161.01 19.5885 161.557 19.875C162.104 20.1484 162.67 20.4349 163.256 20.7344C163.855 21.0339 164.448 21.3594 165.034 21.7109C165.62 22.0625 166.14 22.4531 166.596 22.8828C167.065 23.3125 167.442 23.8008 167.729 24.3477C168.015 24.8945 168.159 25.513 168.159 26.2031ZM159.233 16.0859C159.051 16.0859 158.901 16.151 158.784 16.2812C158.679 16.3984 158.627 16.5612 158.627 16.7695C158.627 17.0039 158.686 17.2643 158.803 17.5508C158.92 17.8372 159.129 18.1172 159.428 18.3906C159.558 18.1172 159.656 17.8503 159.721 17.5898C159.799 17.3294 159.838 17.069 159.838 16.8086C159.838 16.6003 159.78 16.431 159.663 16.3008C159.558 16.1576 159.415 16.0859 159.233 16.0859ZM169.402 26.5938C169.402 25.2135 169.454 23.8268 169.558 22.4336C169.662 21.0404 169.799 19.6276 169.968 18.1953H168.191L168.406 17.0039H170.125C170.307 15.6758 170.489 14.3477 170.672 13.0195C170.867 11.6784 171.043 10.3372 171.199 8.99609H173.191C173.165 9.28255 173.126 9.69922 173.074 10.2461C173.035 10.7799 172.983 11.4049 172.918 12.1211C172.866 12.8242 172.813 13.599 172.761 14.4453C172.709 15.2786 172.657 16.1315 172.605 17.0039H176.394L176.199 18.1953H172.527C172.475 18.9375 172.429 19.6667 172.39 20.3828C172.351 21.099 172.312 21.7826 172.273 22.4336C172.247 23.0716 172.228 23.6641 172.215 24.2109C172.202 24.7448 172.195 25.207 172.195 25.5977C172.195 26.5872 172.221 27.4141 172.273 28.0781C172.338 28.7422 172.429 29.276 172.547 29.6797C172.677 30.0833 172.833 30.3698 173.015 30.5391C173.211 30.7083 173.432 30.793 173.679 30.793C174.005 30.793 174.363 30.6302 174.754 30.3047C175.157 29.9661 175.574 29.5169 176.004 28.957C176.433 28.3971 176.869 27.7461 177.312 27.0039C177.755 26.2487 178.185 25.4479 178.601 24.6016L178.797 24.1914L179.597 24.7969L179.402 25.207C178.803 26.418 178.204 27.5052 177.605 28.4688C177.019 29.4323 176.44 30.2526 175.867 30.9297C175.294 31.5938 174.734 32.1081 174.187 32.4727C173.64 32.8242 173.113 33 172.605 33C172.097 33 171.642 32.8828 171.238 32.6484C170.847 32.4141 170.515 32.043 170.242 31.5352C169.968 31.0143 169.76 30.3503 169.617 29.543C169.474 28.7357 169.402 27.7526 169.402 26.5938Z" fill="#32fcb3"/>
</svg>
