<svg width="20" height="20" viewBox="0 0 166 168" fill="none" xmlns="http://www.w3.org/2000/svg">
<path d="M48.5014 155.742L6 164.333V122.767L114.609 9.41858C117.183 6.7325 121.408 6.52879 124.228 8.95481L155.459 35.8196C158.524 38.4561 158.724 43.1336 155.896 46.0228L48.5014 155.742Z" fill="#18172A" stroke="white" stroke-width="6"/>
<path d="M8.31359 122.61L24.8913 123.811C26.3863 123.919 27.5719 125.114 27.6684 126.61L28.3012 136.418C28.41 138.105 29.8914 139.37 31.575 139.212L41.9907 138.235C43.4415 138.099 44.7803 139.025 45.1645 140.431L49.3136 155.61" stroke="white" stroke-width="4"/>
<path d="M44.1891 139L85.6891 96" stroke="white" stroke-width="4"/>
<path d="M84.1056 97.6342C83.3154 96.8711 83.2934 95.6118 84.0565 94.8216L84.7664 94.0866C85.5295 93.2963 86.7887 93.2744 87.5789 94.0375V94.0375C88.3692 94.8006 88.3911 96.0598 87.628 96.85L86.9182 97.5851C86.1551 98.3753 84.8959 98.3973 84.1056 97.6342V97.6342Z" fill="white"/>
<path d="M26.1891 125.344L59.4856 90.7695" stroke="white" stroke-width="4"/>
<path d="M57.3916 92.9417C56.6038 92.1675 56.5828 90.8914 57.357 90.1036L58.6836 88.7536C59.4578 87.9658 60.734 87.9645 61.5219 88.7387V88.7387C62.3097 89.5129 62.3307 90.789 61.5565 91.5768L60.2299 92.9268C59.4557 93.7146 58.1795 93.7159 57.3916 92.9417V92.9417Z" fill="white"/>
<path d="M66.4409 84.4267C65.6463 83.6594 65.622 82.3911 66.3893 81.5966L71.3702 76.4387C72.1375 75.6441 73.4059 75.6241 74.2004 76.3914V76.3914C74.995 77.1587 75.0193 78.427 74.252 79.2215L69.271 84.3794C68.5037 85.174 67.2354 85.194 66.4409 84.4267V84.4267Z" fill="white"/>
<path d="M8.6808 160.9L9.00721 146.736L22.5722 158.119L8.6808 160.9Z" fill="white"/>
<path d="M96.5983 24.2917L140.417 64.4444C141.435 65.3772 141.504 66.9586 140.572 67.9766L128.933 80.6783C128 81.6963 126.418 81.7654 125.4 80.8326L81.5813 40.6798C80.5634 39.747 80.4943 38.1656 81.4271 37.1477L93.0661 24.4459C93.9989 23.4279 95.5803 23.3589 96.5983 24.2917Z" fill="#18172A" stroke="white" stroke-width="3"/>
<rect x="91.351" y="26" width="4" height="12.0217" rx="2" transform="rotate(44 91.351 26)" fill="white"/>
<rect x="98.351" y="33" width="4" height="12.0217" rx="2" transform="rotate(44 98.351 33)" fill="white"/>
<rect x="106.351" y="40" width="4" height="12.0217" rx="2" transform="rotate(44 106.351 40)" fill="white"/>
<rect x="114.351" y="47" width="4" height="12.0217" rx="2" transform="rotate(44 114.351 47)" fill="white"/>
<rect x="122.351" y="54" width="4" height="12.0217" rx="2" transform="rotate(44 122.351 54)" fill="white"/>
<rect x="130.351" y="61" width="4" height="12.0217" rx="2" transform="rotate(44 130.351 61)" fill="white"/>
<rect x="137.351" y="67" width="4" height="12.0217" rx="2" transform="rotate(44 137.351 67)" fill="white"/>
</svg>
